<?xml version="1.0" standalone="no"?>
<!DOCTYPE svg PUBLIC "-//W3C//DTD SVG 20010904//EN"
 "http://www.w3.org/TR/2001/REC-SVG-20010904/DTD/svg10.dtd">
<svg version="1.0" xmlns="http://www.w3.org/2000/svg"
 width="5000.000000pt" height="5000.000000pt" viewBox="0 0 5000.000000 5000.000000"
 preserveAspectRatio="xMidYMid meet">

<g transform="translate(0.000000,5000.000000) scale(0.100000,-0.100000)"
fill="#000000" stroke="none">
<path d="M19678 35983 c-4161 -5290 -4342 -5521 -4444 -5664 -119 -165 -228
-339 -331 -524 l-83 -150 222 -3 222 -2 76 73 c611 597 1441 1073 2320 1331
474 138 860 212 1355 258 180 17 860 17 1050 0 1043 -92 1965 -339 3160 -845
792 -335 1066 -460 1494 -678 l274 -139 246 0 246 0 -105 58 c-1014 559 -1572
843 -2120 1077 -1558 665 -3191 908 -4749 704 -84 -11 -155 -18 -157 -16 -2 2
973 1860 2167 4128 1194 2268 2179 4139 2188 4157 l17 33 2034 -2263 c4199
-4668 6472 -7194 6645 -7383 55 -61 178 -197 274 -303 l174 -192 133 0 c74 0
134 3 134 6 0 3 -44 54 -98 112 -55 59 -157 170 -228 247 -861 937 -8973 9726
-9044 9798 l-37 39 -3035 -3859z m2974 3715 c-21 -36 -4142 -7169 -4547 -7873
-136 -236 -249 -431 -250 -433 -1 -1 -60 -18 -131 -37 -623 -165 -1221 -432
-1749 -784 -88 -58 -173 -115 -189 -126 -29 -19 -28 -17 11 35 22 30 311 420
642 865 331 446 1868 2514 3414 4598 1546 2083 2813 3787 2815 3787 2 0 -5
-15 -16 -32z"/>
<path d="M28342 34422 c17 -24 4120 -4439 4586 -4934 l204 -218 1003 0 1003 0
32 88 c42 115 76 251 91 359 16 121 6 389 -20 517 -104 511 -397 1017 -960
1656 -752 854 -1696 1514 -2796 1955 -626 251 -1300 426 -2005 519 -328 44
-767 76 -1028 76 -117 0 -122 -1 -110 -18z"/>
<path d="M15420 28615 c-378 -510 -614 -1111 -692 -1760 -19 -161 -16 -605 6
-770 118 -907 536 -1742 1268 -2535 539 -585 1362 -1202 2298 -1725 197 -110
730 -376 966 -482 2122 -957 4471 -1377 6744 -1207 2068 154 3976 783 5595
1842 1841 1204 3155 2889 3716 4764 107 361 212 813 258 1118 26 172 59 459
67 589 l7 101 -124 -119 c-688 -657 -1478 -1150 -2349 -1466 -410 -149 -863
-262 -1295 -324 -346 -49 -459 -56 -920 -56 -476 1 -631 12 -1015 71 -504 78
-1083 238 -1510 418 -46 20 -88 36 -92 36 -24 0 340 -305 572 -480 767 -577
1672 -1022 2610 -1285 163 -46 533 -135 559 -135 4 0 12 32 18 70 23 148 117
281 241 342 86 42 198 50 286 19 104 -37 193 -117 248 -226 l21 -40 18 52 c33
97 83 177 159 254 207 210 466 218 659 21 180 -183 207 -432 77 -697 -98 -199
-270 -322 -539 -385 -513 -120 -1481 31 -2337 365 -851 331 -1607 763 -3615
2065 -1336 866 -1867 1195 -2538 1574 l-189 106 -4546 0 -4547 0 -85 -115z
m3085 -1894 c294 -55 568 -172 788 -334 104 -76 270 -238 352 -342 296 -378
452 -898 415 -1384 -11 -141 -44 -334 -74 -436 -9 -27 -14 -50 -12 -52 2 -2
20 11 42 28 132 106 328 213 491 268 497 169 1036 90 1436 -209 183 -139 351
-338 461 -550 182 -351 222 -761 111 -1143 l-22 -78 51 -24 c28 -12 110 -51
181 -85 370 -177 894 -382 1316 -516 1056 -334 2084 -499 3257 -522 l327 -7
-240 -47 c-1157 -229 -2289 -302 -3435 -223 -2560 178 -4854 1049 -6463 2455
-133 115 -326 321 -447 476 -251 320 -410 642 -481 974 -33 151 -33 448 -1
596 72 332 230 611 452 798 240 202 534 326 890 376 118 16 481 5 605 -19z"/>
<path d="M21445 17315 c-193 -98 -480 -186 -765 -234 -108 -19 -228 -32 -412
-47 l-78 -6 0 -90 0 -91 173 7 c468 18 907 98 1160 214 l77 35 0 132 c0 118
-2 133 -17 137 -10 2 -72 -23 -138 -57z"/>
<path d="M22057 17003 c-4 -3 -7 -28 -7 -54 0 -26 -9 -77 -21 -114 -16 -53
-31 -78 -68 -115 -78 -78 -102 -83 -423 -88 l-277 -4 -3 -1076 c-3 -1077 -3
-1077 -25 -1155 -55 -193 -161 -297 -319 -313 -228 -24 -375 122 -414 409 -6
50 -10 450 -10 1108 l0 1029 -370 0 -371 0 3 -1152 3 -1153 23 -108 c78 -371
268 -623 577 -768 306 -144 734 -144 1040 0 309 145 499 397 577 768 l23 108
3 1085 3 1086 52 24 c69 32 176 140 209 210 28 59 58 186 58 245 l0 35 -128 0
c-71 0 -132 -3 -135 -7z"/>
<path d="M15850 16660 c-472 -86 -829 -396 -1015 -880 -128 -332 -161 -844
-79 -1248 67 -333 192 -587 391 -793 195 -201 413 -318 698 -375 109 -22 409
-25 525 -6 157 26 280 66 361 118 l39 24 0 355 0 355 -41 0 c-34 0 -49 -7 -92
-45 -184 -161 -481 -193 -722 -76 -146 70 -245 173 -325 336 -161 328 -161
854 0 1178 129 259 351 399 635 400 160 1 297 -47 402 -139 45 -38 57 -44 97
-44 l46 0 0 348 c0 394 7 359 -85 404 -144 72 -279 98 -530 103 -167 4 -217 2
-305 -15z"/>
<path d="M27060 16665 c-275 -45 -524 -171 -713 -360 -239 -240 -384 -564
-439 -985 -16 -123 -16 -499 0 -615 21 -152 52 -295 89 -404 169 -508 531
-837 1029 -938 136 -27 431 -24 583 6 129 25 223 58 299 104 l52 31 0 353 0
353 -46 0 c-41 0 -52 -5 -96 -45 -58 -52 -167 -108 -253 -130 -32 -8 -101 -15
-153 -15 -363 0 -627 232 -722 633 -28 121 -43 295 -36 432 26 543 263 864
673 915 185 23 401 -43 502 -154 21 -22 33 -26 78 -26 l53 0 0 350 0 349 -45
27 c-78 45 -176 82 -280 104 -131 28 -447 36 -575 15z"/>
<path d="M17120 15010 l0 -1620 370 0 370 0 0 645 0 645 375 0 375 0 0 -645 0
-645 370 0 370 0 0 1620 0 1620 -370 0 -370 0 0 -645 0 -645 -375 0 -375 0 0
645 0 645 -370 0 -370 0 0 -1620z"/>
<path d="M22785 16608 c-3 -13 -147 -712 -320 -1555 -226 -1099 -315 -1550
-315 -1597 l0 -66 380 0 380 0 5 23 c3 12 27 168 55 347 28 179 53 335 55 348
l5 22 376 0 c291 0 376 -3 379 -12 4 -11 115 -710 115 -723 0 -3 173 -5 385
-5 l385 0 0 53 c0 29 -144 747 -323 1617 l-323 1565 -617 3 -617 2 -5 -22z
m806 -1228 c48 -305 90 -567 93 -582 l6 -28 -280 0 c-226 0 -280 3 -280 13 0
8 41 269 90 582 50 313 90 570 90 572 0 2 44 2 97 1 l97 -3 87 -555z"/>
<path d="M28300 15010 l0 -1620 370 0 370 0 0 645 0 645 375 0 375 0 0 -645 0
-645 370 0 370 0 0 1620 0 1620 -370 0 -370 0 0 -645 0 -645 -372 2 -373 3 -3
643 -2 642 -370 0 -370 0 0 -1620z"/>
<path d="M31052 15057 c-178 -864 -323 -1593 -322 -1619 l0 -48 384 0 383 0
31 193 c17 105 43 272 58 370 l28 177 377 0 378 0 6 -32 c3 -18 30 -184 59
-368 l52 -335 382 -3 382 -2 0 64 c0 45 -95 524 -320 1615 -176 854 -320 1554
-320 1556 0 3 -278 5 -617 5 l-618 0 -323 -1573z m1033 873 c6 -9 185 -1120
185 -1147 0 -10 -63 -13 -280 -13 l-280 0 5 23 c2 12 43 270 90 572 48 303 88
556 90 563 5 15 181 17 190 2z"/>
<path d="M33480 15010 l0 -1620 359 0 359 0 -4 58 c-2 31 -8 386 -14 787 -5
402 -13 781 -16 843 l-5 112 25 0 c22 0 28 -10 56 -82 17 -46 172 -450 344
-898 l312 -815 382 -3 382 -2 0 1620 0 1620 -355 0 -355 0 0 -202 c1 -112 7
-522 14 -913 9 -438 10 -714 5 -720 -6 -6 -15 -6 -25 0 -9 6 -167 414 -358
923 l-341 912 -382 0 -383 0 0 -1620z"/>
<path d="M21085 11829 c-394 -57 -686 -278 -785 -594 -28 -90 -38 -265 -20
-372 49 -309 280 -545 635 -652 220 -66 534 -68 775 -5 116 30 292 116 377
184 128 102 230 260 269 415 25 101 23 304 -4 407 -88 326 -383 555 -799 617
-84 13 -361 13 -448 0z m375 -179 c320 -40 547 -199 626 -443 23 -70 27 -100
28 -202 1 -196 -45 -309 -178 -440 -130 -129 -276 -190 -512 -216 -185 -19
-416 17 -557 87 -234 118 -357 312 -357 564 0 188 49 310 175 435 63 64 98 90
165 122 177 87 391 119 610 93z"/>
<path d="M25147 11825 c-264 -45 -458 -165 -517 -322 -31 -83 -25 -225 12
-298 60 -116 197 -197 403 -240 40 -8 210 -30 378 -49 347 -40 461 -63 538
-109 123 -75 133 -228 21 -329 -189 -170 -688 -197 -964 -51 -111 58 -190 154
-224 271 -2 9 -35 12 -120 12 l-117 0 6 -52 c26 -215 261 -401 599 -475 106
-22 452 -25 568 -4 199 36 341 101 446 206 90 88 115 149 116 272 0 107 -21
168 -79 233 -97 108 -250 153 -698 205 -414 48 -526 73 -603 131 -88 67 -95
201 -15 294 42 49 148 103 250 127 111 26 398 25 498 -1 106 -28 208 -79 266
-133 50 -46 99 -128 99 -165 0 -16 12 -18 121 -18 l121 0 -7 43 c-26 158 -133
279 -322 369 -91 43 -191 71 -308 87 -103 15 -371 12 -468 -4z"/>
<path d="M18430 11006 l0 -816 115 0 115 0 0 340 0 340 213 0 212 0 340 -340
340 -340 150 0 150 0 -345 339 -345 338 90 6 c183 13 326 68 427 164 104 100
146 206 134 343 -16 196 -168 350 -407 411 -80 21 -112 22 -636 26 l-553 5 0
-816z m1141 605 c173 -60 254 -198 207 -353 -16 -55 -88 -132 -151 -161 -92
-43 -136 -47 -562 -47 l-405 0 0 288 c0 159 3 292 7 296 5 4 195 6 423 4 403
-4 417 -4 481 -27z"/>
<path d="M22885 11038 c-242 -431 -448 -798 -458 -815 l-19 -33 129 0 128 0
110 200 110 200 575 0 575 0 110 -200 110 -200 128 0 129 0 -19 33 c-10 17
-216 384 -458 815 l-439 782 -136 0 -136 0 -439 -782z m814 163 c127 -231 231
-425 231 -430 0 -8 -148 -11 -471 -11 -400 0 -470 2 -467 14 5 22 462 846 469
846 4 0 111 -189 238 -419z"/>
<path d="M26350 11725 l0 -95 400 0 400 0 0 -720 0 -720 115 0 115 0 0 720 0
720 400 0 400 0 0 95 0 95 -915 0 -915 0 0 -95z"/>
<path d="M28380 11803 c0 -10 33 -195 74 -410 l74 -392 -74 -393 c-41 -216
-74 -398 -74 -405 0 -10 158 -13 780 -13 l780 0 0 90 0 90 -651 0 -651 0 6 28
c3 15 24 126 46 247 22 121 42 230 45 243 l5 22 565 0 565 0 0 90 0 90 -565 0
-565 0 -5 23 c-7 33 -95 512 -95 520 0 4 290 7 645 7 l645 0 0 90 0 90 -775 0
c-731 0 -775 -1 -775 -17z"/>
<path d="M30300 11006 l0 -816 120 0 120 0 0 340 0 340 206 0 206 0 345 -340
346 -340 146 1 146 0 -344 338 -344 338 94 6 c246 18 437 125 519 291 58 118
52 276 -16 392 -40 68 -126 141 -216 184 -148 71 -156 72 -775 77 l-553 5 0
-816z m1052 624 c107 -15 176 -46 233 -104 57 -57 77 -109 76 -193 -1 -127
-95 -228 -247 -267 -51 -13 -131 -16 -468 -16 l-406 0 0 295 0 295 373 0 c204
0 402 -5 439 -10z"/>
</g>
</svg>
